<?xml version="1.0" encoding="UTF-8" standalone="no"?>
<!-- Created with Inkscape (http://www.inkscape.org/) -->

<svg
   width="138.70143mm"
   height="181.0806mm"
   viewBox="0 0 138.70143 181.0806"
   version="1.1"
   id="svg5"
   inkscape:version="1.1 (c68e22c387, 2021-05-23)"
   sodipodi:docname="Bi1.svg"
   xmlns:inkscape="http://www.inkscape.org/namespaces/inkscape"
   xmlns:sodipodi="http://sodipodi.sourceforge.net/DTD/sodipodi-0.dtd"
   xmlns="http://www.w3.org/2000/svg"
   xmlns:svg="http://www.w3.org/2000/svg">
  <sodipodi:namedview
     id="namedview7"
     pagecolor="#ffffff"
     bordercolor="#666666"
     borderopacity="1.0"
     inkscape:pageshadow="2"
     inkscape:pageopacity="0.0"
     inkscape:pagecheckerboard="0"
     inkscape:document-units="mm"
     showgrid="false"
     inkscape:zoom="0.5"
     inkscape:cx="-371"
     inkscape:cy="348"
     inkscape:window-width="1920"
     inkscape:window-height="974"
     inkscape:window-x="-9"
     inkscape:window-y="-9"
     inkscape:window-maximized="1"
     inkscape:current-layer="layer1"
     fit-margin-top="0"
     fit-margin-left="0"
     fit-margin-right="0"
     fit-margin-bottom="0"
     showborder="true" />
  <defs
     id="defs2" />
  <g
     inkscape:label="Layer 1"
     inkscape:groupmode="layer"
     id="layer1"
     transform="translate(-35.224757,-55.6925)">
    <path
       style="fill:#000000;fill-opacity:1;fill-rule:nonzero;stroke:none;stroke-width:0.264583"
       id="path48"
       d="m 47.911665,71.319804 c 2.708592,-2.01591 5.492252,-4.039666 8.492836,-5.6056 0.857793,-0.447659 1.799672,-0.711607 2.705484,-1.051771 10.020837,-3.763179 5.411859,-2.251808 16.526534,-5.086792 3.217248,-0.481838 6.414235,-1.127083 9.65174,-1.445514 13.21748,-1.300038 26.635571,-0.03749 39.009211,5.023218 3.23459,1.322922 6.2609,3.106772 9.39135,4.660159 2.90791,1.967984 5.97698,3.716647 8.72372,5.903952 10.26861,8.177183 20.30535,20.930859 25.26486,33.147344 1.1185,2.75514 1.77377,5.67637 2.66065,8.51456 0.19804,3.02204 0.68614,6.03901 0.5941,9.06614 -0.18627,6.12631 -1.56417,13.00478 -4.42169,18.48128 -1.67497,3.21012 -3.83778,6.17676 -6.20961,8.9126 -6.61273,7.6276 -10.12759,9.07055 -18.54257,14.57242 -11.08072,4.38436 -22.55291,8.16821 -34.52978,9.04633 -8.821654,0.64679 -16.992398,-0.18845 -25.681388,-1.54676 -3.605819,-0.56369 -7.160154,-1.41804 -10.740231,-2.12706 -5.090832,-1.32386 -10.185289,-2.49441 -15.137511,-4.28911 -1.365335,-0.4948 -2.721785,-1.04352 -3.986766,-1.75682 -0.532783,-0.30042 -0.737523,-1.32762 -1.344117,-1.24915 -0.915951,0.11849 -2.580132,0.87136 -2.183641,1.70551 0.441214,0.92824 2.052148,0.11768 3.078223,0.17653 1.999441,0.6454 4.04273,1.16811 5.998327,1.93619 9.211521,3.61795 17.889558,8.65585 25.94348,14.37812 2.702997,1.92046 5.370203,3.90508 7.872177,6.08097 2.263277,1.96829 4.26462,4.21894 6.396929,6.32841 3.034178,4.22034 6.122278,7.10026 6.437548,12.60214 0.11855,2.06887 -0.47307,4.1633 -1.22195,6.09551 -1.87666,4.84207 -4.522863,7.35915 -9.541599,9.15517 -1.674937,0.5994 -3.550166,0.23471 -5.325247,0.35207 -3.334933,-0.27118 -6.723775,-0.15763 -10.004798,-0.81352 -11.339216,-2.26678 -21.747729,-8.33472 -30.972652,-15.05574 -3.070328,-2.23696 -5.91993,-4.76215 -8.879895,-7.14322 0,0 -2.710632,1.70185 -2.710632,1.70185 v 0 c 2.972493,2.38478 5.837687,4.90986 8.917482,7.15436 9.244129,6.73696 19.633027,12.84805 30.961097,15.25709 3.270826,0.69557 6.657006,0.64246 9.985509,0.96369 5.347296,-1.74217 13.188969,-3.27435 17.617565,-7.6822 1.48703,-1.48007 2.43471,-3.47575 3.15527,-5.4462 0.72543,-1.98374 1.2737,-4.13097 1.11724,-6.23739 -0.41276,-5.55706 -3.54677,-8.42698 -6.66481,-12.66574 -2.158034,-2.10927 -4.188589,-4.35738 -6.474092,-6.32781 -2.520563,-2.17309 -5.2051,-4.15398 -7.918606,-6.08075 -8.043227,-5.71121 -16.64944,-10.76173 -25.74168,-14.61353 -1.915236,-0.81136 -3.909734,-1.42115 -5.864603,-2.13174 -3.123647,-0.44951 -4.850834,-1.40898 -7.257925,2.35429 -0.358693,0.56078 0.963639,0.94751 1.555141,1.2529 1.327309,0.68529 2.735191,1.21158 4.149479,1.69237 5.070528,1.72375 10.198407,2.85992 15.395937,4.15358 3.615116,0.6938 7.206864,1.52296 10.845348,2.08141 8.58797,1.31809 17.023873,2.22131 25.737631,1.61036 7.57627,-0.5312 17.97385,-2.82243 25.07346,-5.45478 5.08746,-1.8863 9.91885,-4.40202 14.87828,-6.60303 8.43417,-5.56199 11.95705,-7.02476 18.57495,-14.71806 2.38491,-2.77245 4.55849,-5.77613 6.24107,-9.02316 2.8651,-5.52904 4.236,-12.44804 4.40803,-18.62513 0.085,-3.05362 -0.41381,-6.09558 -0.62072,-9.14336 -0.90987,-2.84568 -1.58885,-5.7758 -2.72962,-8.53703 -2.48077,-6.004638 -6.28136,-12.124654 -10.18295,-17.273422 -4.28792,-5.658572 -9.67003,-11.533725 -15.22308,-15.984683 -2.74978,-2.204048 -5.82941,-3.961633 -8.74412,-5.942449 -3.13172,-1.572072 -6.15667,-3.377882 -9.39518,-4.716214 -12.44802,-5.144198 -25.76293,-6.416725 -39.07788,-5.161216 -3.233854,0.30493 -6.429214,0.931862 -9.643819,1.397794 -2.982577,0.737417 -6.004184,1.331857 -8.947729,2.21225 -9.090316,2.718853 -17.504156,7.418845 -25.107077,13.034277 0,0 3.66731,-1.465893 3.66731,-1.465893 z" />
    <circle
       id="path50"
       style="fill:#000000;stroke:#000000;stroke-width:0.264583"
       cx="105.83333"
       cy="107.42083"
       r="0.070484482" />
    <path
       style="fill:#000000;fill-opacity:1;fill-rule:nonzero;stroke:none;stroke-width:0.264583"
       id="path60"
       d="m 123.56443,121.81003 c -4.59854,1.13534 -9.66276,2.08696 -14.35605,0.86065 -1.20378,-0.31453 -2.31799,-0.90499 -3.47698,-1.35748 -0.94968,-0.72973 -2.06415,-1.28456 -2.84904,-2.18919 -2.36125,-2.72145 -2.41745,-6.3942 -0.89443,-9.5061 1.32795,-2.71335 2.55118,-3.40773 4.76037,-5.37554 1.40216,0.44887 -0.88983,-0.26058 3.92071,-0.97684 3.64706,-0.54303 7.6548,-0.0175 10.96042,1.64894 0.92097,0.46429 1.71561,1.1453 2.57342,1.71794 0.59699,0.70867 1.29953,1.34045 1.79097,2.12601 1.22632,1.96023 1.59661,4.48471 0.82933,6.68557 -0.56231,1.61293 -1.3605,2.34129 -2.42217,3.62272 -1.79614,1.78283 -3.87,3.27127 -6.03441,4.57423 -0.41803,0.25165 -1.66616,1.01274 -1.27001,0.72786 0.64961,-0.46714 1.35525,-0.85096 2.03288,-1.27645 -0.47291,0.17749 -0.94581,0.35499 -1.41871,0.53248 0,0 -3.06904,2.39598 -3.06904,2.39598 v 0 c 0.48046,-0.16556 0.96091,-0.33112 1.44137,-0.49667 4.18854,-2.29886 8.51659,-4.45785 11.85352,-7.96761 1.07432,-1.38536 1.81307,-2.07984 2.34368,-3.80306 0.71224,-2.31306 0.25671,-4.92848 -1.02849,-6.95395 -0.51573,-0.81279 -1.24334,-1.46988 -1.86501,-2.20482 -0.88089,-0.5916 -1.69804,-1.29144 -2.64268,-1.77478 -4.02478,-2.05937 -10.77449,-2.77215 -14.96733,-0.88442 -2.27406,1.02384 -4.32683,2.4813 -6.49024,3.72195 -2.19655,2.04605 -3.420647,2.77313 -4.694171,5.56846 -1.495051,3.2816 -1.310282,7.077 1.122064,9.89501 0.804667,0.93226 1.942167,1.51473 2.913257,2.27209 1.17398,0.47773 2.30067,1.09413 3.52193,1.4332 4.66153,1.29421 9.68448,0.39149 14.30038,-0.59657 0,0 3.11446,-2.41961 3.11446,-2.41961 z" />
    <circle
       id="path70"
       style="fill:#000000;stroke:#000000;stroke-width:0.264583"
       cx="129.64583"
       cy="215.37083"
       r="0.070484482" />
    <path
       style="fill:#000000;fill-opacity:1;fill-rule:nonzero;stroke:none;stroke-width:0.264583"
       id="path76"
       d="m 134.18774,215.7968 c 0.26567,-7.44929 -0.42045,-14.90183 -1.21739,-22.30122 -0.43778,-3.08887 -1.074,-6.14889 -1.90435,-9.1559 -0.16099,-0.58304 -0.30663,-1.17297 -0.52577,-1.73674 -0.0796,-0.20476 -0.1723,-0.65891 -0.36311,-0.55002 -1.31253,0.74895 -2.37999,1.86289 -3.56998,2.79433 0.0957,0.75454 0.1554,1.51452 0.28711,2.26361 0.49346,2.80665 1.17745,5.39026 1.91629,8.15768 1.65261,6.19 3.56711,12.27128 5.57786,18.35272 2.82876,8.16397 6.97409,15.72888 11.32886,23.15183 0,0 3.12456,-1.80897 3.12456,-1.80897 v 0 c -0.9531,-1.58761 -1.94444,-3.15287 -2.8593,-4.7628 -3.32547,-5.85205 -6.2603,-11.92491 -8.51142,-18.27623 -1.99305,-6.09202 -3.87117,-12.18065 -5.43601,-18.39896 -0.66935,-2.65987 -1.35799,-5.46016 -1.73544,-8.19364 -0.10202,-0.73876 -0.11001,-1.48748 -0.16502,-2.23122 -1.11928,0.32603 -2.29731,0.49397 -3.35783,0.97809 -0.16181,0.0739 0.29499,0.22459 0.36727,0.38711 0.24216,0.54452 0.38981,1.12674 0.55996,1.69788 0.88301,2.96409 1.52603,5.99565 1.9718,9.05562 0.83105,7.39286 1.5811,14.87346 0.97295,22.31249 0,0 3.53896,-1.73566 3.53896,-1.73566 z" />
    <path
       style="fill:#000000;fill-opacity:1;fill-rule:nonzero;stroke:none;stroke-width:0.264583"
       id="path78"
       d="m 53.17596,67.768748 c 0.266788,0.512886 0.56261,1.011687 0.800365,1.538663 1.997567,4.427503 3.231787,9.248394 4.154511,13.997373 1.433264,7.376592 1.901653,12.258577 2.838908,19.794896 1.378818,17.36296 1.87239,34.95308 -0.84323,52.22805 -1.904034,12.11219 -3.688612,17.07301 -7.019906,28.85805 -6.511023,17.4567 -2.989263,9.12153 -10.449097,25.05428 0,0 2.825766,-1.28845 2.825766,-1.28845 v 0 c 7.316443,-15.91872 3.847655,-7.58986 10.291516,-25.0341 3.277201,-11.61974 5.16069,-16.98861 7.058451,-28.93223 2.754019,-17.33253 2.242198,-34.96829 1.026483,-52.40241 -1.245032,-10.492422 -2.135241,-21.1818 -5.409645,-31.292614 -0.687488,-2.122842 -1.019931,-2.722372 -1.858139,-4.501393 0,0 -3.415983,1.979885 -3.415983,1.979885 z" />
    <path
       style="fill:#d38d5f;stroke-width:2"
       d="m 368,662.53306 c -19.68101,-0.8143 -50.6354,-4.56046 -72.8397,-8.81524 -16.14405,-3.0935 -25.85592,-6.4513 -43.10212,-14.90216 l -22.26242,-10.9089 3.56813,-17.45338 c 10.2737,-50.25336 13.46226,-99.65106 11.28271,-174.79346 -1.99937,-68.93033 -11.94914,-140.54125 -24.18337,-174.0536 l -4.88959,-13.39368 22.21318,-7.85164 C 280.02516,225.43112 314.04102,219.61567 359,219.63805 c 81.53336,0.0406 147.9989,27.43025 204.02998,84.07836 36.20144,36.60012 62.04832,76.6409 74.41712,115.28359 5.89562,18.41912 6.40224,22.13418 6.40944,47 0.014,51.6823 -14.39342,84.12624 -54.25026,122.15776 -24.55662,23.432 -51.91616,39.65326 -87.02654,51.59738 -36.02818,12.25632 -70.43626,20.15978 -93.33493,21.43882 -9.48464,0.52978 -19.94481,1.15952 -23.24481,1.39942 -3.3,0.23988 -11.4,0.21274 -18,-0.0604 z m 73,-187.97178 c 2.75,-1.23756 7.51224,-2.7966 10.58274,-3.46456 10.20096,-2.2191 38.2775,-29.82846 41.59568,-40.90354 8.62004,-28.77114 -24.04462,-54.05048 -63.80326,-49.37763 -20.19109,2.37306 -49.57661,22.03271 -57.31848,38.34751 -3.82707,8.06494 -3.95818,25.30292 -0.24671,32.43626 7.34047,14.10816 24.32524,22.53162 46.27873,22.95156 8.20122,0.1568 14.9113,1.05022 14.9113,1.9852 0,0.935 0.675,1.37944 1.5,0.98764 0.825,-0.39178 3.75,-1.72488 6.5,-2.96244 z"
       id="path351"
       transform="scale(0.26458333)" />
    <path
       style="fill:#d38d5f;stroke-width:2"
       d="m 314,841.77442 c -37.75553,-2.57069 -72.36136,-16.26877 -119.37682,-47.25313 l -19.37682,-12.76981 8.77307,-18.90211 c 10.5665,-22.76619 26.73281,-66.78528 34.09954,-92.84937 2.95358,-10.45 5.64934,-19.31425 5.99058,-19.69833 0.34125,-0.38408 8.8589,1.23583 18.92813,3.59981 14.23859,3.34282 22.5254,6.83196 37.28399,15.69833 23.57264,14.16148 60.25658,41.347 74.14143,54.94427 12.60404,12.343 31.10422,37.86337 34.25556,47.25437 7.74986,23.0947 -5.37142,53.87735 -27.81291,65.24931 -10.88352,5.5151 -20.73942,6.50827 -46.90575,4.72666 z"
       id="path390"
       transform="scale(0.26458333)" />
  </g>
</svg>
